<svg width="463" height="449" fill="none" xmlns="http://www.w3.org/2000/svg"><path fill-rule="evenodd" clip-rule="evenodd" d="M286.497 387.711c-30.502 2.669-58.852-7.788-89.333-10.649-42.431-3.982-99.518 23.504-124.92-9.462-25.642-33.277 24.129-77.867 25.713-119.286 1.292-33.797-24.896-64.932-17.404-97.976 8.521-37.581 24.75-81.183 61.462-96.341 37.041-15.295 75.836 19.79 115.988 23.07 38.31 3.131 84.134-28.899 112.922-4.363 29.692 25.305.135 75.394 12.858 111.562 11.751 33.405 57.207 52.5 57.266 87.774.059 35.47-27.885 66.899-56.97 88.668-27.278 20.415-63.183 23.993-97.582 27.003z" fill="#F2FFEE"/><path fill-rule="evenodd" clip-rule="evenodd" d="M227.582 114.603c22.279-1.85 40.541 16.043 62.841 17.16 40.359 2.022 86.819-30.991 118.649-8.066 28.287 20.373 6.035 64.71 6.493 98.198.46 33.54 11.623 68.107-3.798 98.58-16.125 31.863-48.207 54.012-81.699 70.367-34.297 16.748-76.183 39.208-110.704 23.586-36.417-16.48-22.413-75.781-54.726-98.448-35.407-24.837-109.649 9.181-126.868-28.934-16.352-36.198 43.21-65.755 70.272-96.345 16.873-19.074 36.06-34.667 57.956-48.606 19.201-12.223 38.521-25.577 61.584-27.492z" fill="#F2FFFD"/><g opacity=".7" fill-rule="evenodd" clip-rule="evenodd"><path opacity=".7" d="M67.323 226.024c8.839-.442 19.77 4.53 20.713 13.789.685 6.727.472 13.436 1.532 20.153.848 5.369 2.64 10.523 5.086 15.413 2.351 4.702 7.228 8.706 8.497 13.729.808 3.201.355 7.704-.759 10.835-1.356 3.807-.636 3.507 2.066 6.701 5.294 6.26 10.061 12.679 13.432 20.156 4.856 10.769 8.039 23.357 6.237 35.145-.229 1.497-.501 6.868-2.64 7.244-2.389.42-1.272-2.653-1.144-3.645.813-6.332 1.535-11.867.554-18.299-3.783-24.814-22.253-41.162-34.28-62.222-.662-1.086-2.057-3.673-3.028-5.379-1.532-2.693-3.072-7.819-5.147-9.816-3.906-3.763-.314 3.802.447 5.246.962 1.826 2.02 3.768 3.007 5.368 4.512 7.42 9.55 15.519 14.21 23.167-20.156 4.426-34.351-18.927-39.76-34.28-4.456-12.649-9.788-42.223 10.977-43.305z" fill="#7D8FBC"/><path opacity=".7" d="M185.787 202.534c-14.776 1.129-24.261 10.526-28.677 23.668-2.38 7.082-2.652 14.358-3.975 21.636-1.989 10.951-6.27 19.249-14.635 27.051-2.591 2.416-4.501 4.897-5.858 7.551-2.695 2.649-5.04 5.648-6.763 9.314-2.202 4.682-2.824 10.3-.283 14.968.683 1.255 2.388 3.774 4.155 4.918-6.615 13.577-10.252 28.446-9.842 43.296.248 8.965.702 17.933 1.232 26.886.142 2.404.955 6.374 2.175 2.342 1.117-3.687-.284-9.477-.413-13.329-.631-18.769-1.17-35.833 6.847-53.368.84-1.838 1.732-3.661 2.66-5.47.054-.03.105-.067.156-.103.036.027.068.055.103.081.059-.102.141-.223.235-.359.266-.265.499-.599.72-.973.711-.949 1.516-2.065 1.52-2.676l-.003-.017c4.963-7.807 10.647-15.184 16.453-22.417-.043.053 6.298-8.268 5.317-3.666-.472 2.217-5.137 6.44-7.02 8.789-4.168 5.226-9.061 11.847-13.128 18.25-.547.303-1.32 1.791-1.879 2.899-.309.562-.597 1.128-.88 1.621 14.409 4.588 25.618-4.654 33.261-15.403l.026-.038c2.326-2.97 4.708-5.92 7.685-8.268 4.966-3.917 10.284-4.609 16.139-6.537 15.967-5.258 22.756-25.201 24.912-39.998 2.433-16.695-9.466-42.294-30.24-40.648z" fill="#83D681"/><path opacity=".7" d="M156.6 155.782c-15.165 15.211-22.491 36.308-28.292 56.142-6.479 22.152-10.759 44.646-10.923 67.678-.108 15.131-.535 30.358.382 45.472.325 5.367.88 10.745 1.763 16.055.072.436 2.048 12.293 3.937 9.53 1.075-1.571-2.024-12.3-2.258-14.086-1.318-10.065-1.624-20.203-1.56-30.34.106-16.691-.405-33.295 1.351-49.924.261-2.483.468-5.091 1.08-7.52.65-2.582-.178-1.455 1.939-2.477 2.056-.994 4.597-.852 6.731-2.099 8.463-4.945 12.792-17.649 16.162-25.985 3.854-9.532 6.196-19.697 8.067-29.728 1.374-7.37 2.356-14.696 2.912-22.161.175-2.353.185-4.813.665-7.126.129-.624.778-1.728.754-2.281-.05-1.17-.782-1.857-.842-2.84a58.676 58.676 0 00-1.868 1.69zM73.913 358.439c0 25.155 21.159 45.547 47.26 45.547s47.26-20.392 47.26-45.547" fill="#83D681"/><path opacity=".7" d="M124.965 358.584h-2.497c.173-3.019.402-6.034.925-9.02 2.004-11.419 8.268-28.192 22.006-30.045.506-.069 2.371-.081 4.629.047a8.582 8.582 0 013.532-1.005c11.697-.831 24.759 8.263 30.401 17.727 4.549 7.63 3.782 17.65.973 25.756-1.881 5.427-5.987 13.165-12.834 13.24-8.566.095-8.979-10.109-9.145-16.074-.22-7.93-1.26-14.839-7.744-20.244-1.511-1.259-3.163-2.367-4.689-3.609-2.39-1.944-5.032-3.934-5.34-7.149-.425-4.437 2.174-5.235 6.141-4.411.676.14 7.489 3.086 6.48.758-.308-.712-1.433-1.275-2.852-1.698-3.674-.385-8.055-.831-9.315-.564-13.592 2.874-18.884 21.019-20.29 32.548a103.992 103.992 0 00-.381 3.743z" fill="#7D8FBC"/></g><path fill-rule="evenodd" clip-rule="evenodd" d="M322.42 77.27c5.332-6.031 8.941-13.424 8.338-21.707-1.738-23.866-36.21-18.616-42.916-6.57-6.706 12.045-5.909 42.6 2.758 44.753 3.456.859 10.818-1.245 18.312-5.597l-4.704 32.069h27.773l-9.561-42.947z" fill="#915B3C"/><path fill-rule="evenodd" clip-rule="evenodd" d="M324.554 82.643c3.485-14.945 13.416-25.133 11.899-31.813-1.011-4.453-3.706-7.222-8.084-8.307-2.265-8.83-9.568-12.584-21.911-11.266-18.513 1.977-29.813 9.387-24.933 25.692 4.486 0 9.901-1.564 17.389 1.115 2.376.85 4.075 3.486 5.098 7.907h3.384c3.284-5.247 6.522-7.175 9.714-5.784 3.192 1.39 3.918 4.769 2.177 10.134l1.667 12.322h3.6z" fill="#000"/><path fill-rule="evenodd" clip-rule="evenodd" d="M409.512 259.62H276.436c-10.225 0-18.515 7.989-18.515 17.844v102.6c0 9.855 8.29 17.844 18.515 17.844h133.076c10.225 0 18.514-7.989 18.514-17.844v-102.6c0-9.855-8.289-17.844-18.514-17.844zm-18.515 31.226c2.556 0 4.628 1.998 4.628 4.461v66.914c0 2.463-2.072 4.46-4.628 4.46h-96.046c-2.556 0-4.629-1.997-4.629-4.46v-66.914c0-2.463 2.073-4.461 4.629-4.461h96.046z" fill="#C5CFD6"/><path fill-rule="evenodd" clip-rule="evenodd" d="M143.177 392.331c22.815-26.849 38.252-46.755 46.311-59.715 13.8-22.192 25.094-41.939 28.658-49.482 8.499-17.988-19.567-26.41-25.918-18.02-9.614 12.698-30.146 52.657-61.596 119.876l12.545 7.341z" fill="#B28B67"/><path fill-rule="evenodd" clip-rule="evenodd" d="M189.929 384.525l42.459-103.006c9.081-18.777-34.774-31.119-41.448-22.381-15.152 19.839-51.165 98.102-55.679 104.013l54.668 21.374z" fill="#519F50"/><path fill-rule="evenodd" clip-rule="evenodd" d="M303.013 363.868c-8.271-11.628-38.355-50.746-54.741-66.931a1221.686 1221.686 0 00-13.649-13.276c-12.916-12.365-38.638 8.418-25.745 19.681 32.108 28.048 78.955 65.912 82.87 69.288 5.485 4.732 16.463-1.455 11.265-8.762z" fill="#915B3C"/><path fill-rule="evenodd" clip-rule="evenodd" d="M301.079 358.615c2.849 2.261 4.702 4.107 5.56 5.539 1.044 1.742 2.265 4.451 3.665 8.127l-56.523 31.45c-4.272-3.862-4.938-6.861-1.997-8.995a354.188 354.188 0 007.281-5.399l19.51-25.905a1.185 1.185 0 011.616-.247l.026.019 4.054 3.008c3.719-.313 6.494-.979 8.325-1.998 1.489-.828 3.197-2.55 5.125-5.168.74-1.004 2.184-1.241 3.227-.527.045.03.088.063.131.096zM152.991 388.319c1.295 3.33 1.942 5.823 1.942 7.476 0 2.011-.348 4.946-1.043 8.804H88.623c-1.696-5.404-.717-8.321 2.937-8.752 3.654-.431 6.69-.82 9.107-1.167l30.335-13.034c.584-.25 1.268.002 1.529.565l.012.029 1.95 4.559c3.383 1.521 6.132 2.281 8.247 2.281 1.718 0 4.091-.669 7.119-2.006 1.162-.514 2.536-.022 3.069 1.098.022.048.044.097.063.147z" fill="#000"/><path fill-rule="evenodd" clip-rule="evenodd" d="M247.667 286.664c35.29-5.54 58.928-9.329 70.913-11.366 34.164-5.805 44.126-23.523 38.236-62.18H293.87c-8.33 2.318-43.135 16.656-104.416 43.013-11.025 5.275-8.972 20.828-6.957 25.952.083.209 18.67 30.904 55.761 92.085l51.493-31.614-42.181-52.164c-1.114-2.163-1.082-3.404.097-3.726z" fill="#5BC159"/><path fill-rule="evenodd" clip-rule="evenodd" d="M243.132 198.519l-36.912 26.122c-10.012 2.604-18.376 5.843-25.093 9.718-1.586 1.393-3.504 4.215 3.076 3.727 6.581-.488 13.525-.715 14.433 1.448.908 2.163-3.074 4.75-1.239 7.668 1.224 1.946 7.004-2.933 17.342-14.636l36.552-14.608-8.159-19.439zm141.723.901l-24.182.092c14.931 46.453 22.992 71.101 24.182 73.943 2.677 6.395-2.989 16.135-5.412 21.369 7.892 3.404 7.051-9.2 17.007-4.737 9.087 4.075 15.999 11.457 26.498 5.214 1.29-.768 2.705-3.658-.713-5.916-8.514-5.627-20.783-15.474-22.441-18.715-2.261-4.42-7.241-28.17-14.939-71.25z" fill="#915B3C"/><path fill-rule="evenodd" clip-rule="evenodd" d="M316.133 101.629l-10.006-1.654c-37.126 30.909-52.375 90.288-97.883 121.744l10.954 13.085c78.947-9.421 98.514-81.849 96.935-133.175z" fill="#604E9D"/><path fill-rule="evenodd" clip-rule="evenodd" d="M359.753 222.818h-88.537c-4.046 0-3.284-5.63-2.699-8.471 6.75-32.788 33.098-68.132 33.098-114.805l25.538-3.86c21.124 32.742 28.429 73.053 32.6 127.136z" fill="#DDE3E9"/><path fill-rule="evenodd" clip-rule="evenodd" d="M359.042 127.866c3.709-1.028 6.646-3.424 8.811-7.19 9.335-16.232 5.963-25.169-4.012-28.107-9.975-2.937-18.871 3.114-34.765 3.114-.864 0-1.656.052-2.375.156l-7.995.44c-22.938 74.921-29.264 124.907-18.978 149.958h69.685c4.129 9.279 8.08 17.086 11.853 23.42h18.988c1.787-55.686-11.95-102.95-41.212-141.791z" fill="#7159C1"/><path fill-rule="evenodd" clip-rule="evenodd" d="M354.239 207.76c-2.192 17.672-5.754 30.498-10.686 38.477h25.86c-4.816-10.823-9.874-23.649-15.174-38.477z" fill="#000" fill-opacity=".1"/></svg>